<svg xmlns="http://www.w3.org/2000/svg" xmlns:xlink="http://www.w3.org/1999/xlink" width="2000" zoomAndPan="magnify" viewBox="0 0 1500 449.999984" height="600" preserveAspectRatio="xMidYMid meet" version="1.0"><defs><filter x="0%" y="0%" width="100%" height="100%" id="af13b0b956"><feColorMatrix values="0 0 0 0 1 0 0 0 0 1 0 0 0 0 1 0 0 0 1 0" color-interpolation-filters="sRGB"/></filter><g/><mask id="22ce339a40"><g filter="url(#af13b0b956)"><rect x="-150" width="1800" fill="#000000" y="-44.999998" height="539.99998" fill-opacity="0.45"/></g></mask><clipPath id="d2c5a14eed"><rect x="0" width="548" y="0" height="94"/></clipPath></defs><g fill="#8a8279" fill-opacity="1"><g transform="translate(562.189901, 309.688334)"><g><path d="M 11.328125 0.375 C 8.867188 0.375 6.726562 -0.0703125 4.90625 -0.96875 C 3.082031 -1.863281 1.597656 -3.097656 0.453125 -4.671875 L 2.734375 -6.453125 C 3.847656 -5.085938 5.101562 -4.054688 6.5 -3.359375 C 7.894531 -2.660156 9.566406 -2.3125 11.515625 -2.3125 C 12.804688 -2.3125 13.957031 -2.523438 14.96875 -2.953125 C 15.976562 -3.390625 16.773438 -3.984375 17.359375 -4.734375 C 17.941406 -5.484375 18.234375 -6.335938 18.234375 -7.296875 C 18.234375 -8.335938 17.832031 -9.210938 17.03125 -9.921875 C 16.238281 -10.628906 14.816406 -11.375 12.765625 -12.15625 C 10.304688 -13.125 8.472656 -14.117188 7.265625 -15.140625 C 6.066406 -16.171875 5.46875 -17.546875 5.46875 -19.265625 C 5.46875 -20.734375 5.882812 -22.050781 6.71875 -23.21875 C 7.5625 -24.382812 8.722656 -25.300781 10.203125 -25.96875 C 11.679688 -26.644531 13.375 -26.984375 15.28125 -26.984375 C 17.351562 -26.984375 19.1875 -26.609375 20.78125 -25.859375 C 22.382812 -25.109375 23.691406 -24.140625 24.703125 -22.953125 L 22.5 -20.96875 C 21.53125 -22.039062 20.429688 -22.859375 19.203125 -23.421875 C 17.972656 -23.992188 16.578125 -24.28125 15.015625 -24.28125 C 13.691406 -24.28125 12.546875 -24.054688 11.578125 -23.609375 C 10.617188 -23.171875 9.882812 -22.597656 9.375 -21.890625 C 8.875 -21.179688 8.625 -20.421875 8.625 -19.609375 C 8.625 -18.515625 9.085938 -17.625 10.015625 -16.9375 C 10.941406 -16.257812 12.441406 -15.515625 14.515625 -14.703125 C 16.796875 -13.835938 18.507812 -12.878906 19.65625 -11.828125 C 20.8125 -10.785156 21.390625 -9.398438 21.390625 -7.671875 C 21.390625 -6.128906 20.945312 -4.75 20.0625 -3.53125 C 19.175781 -2.3125 17.972656 -1.351562 16.453125 -0.65625 C 14.929688 0.03125 13.222656 0.375 11.328125 0.375 Z M 11.328125 0.375 "/></g></g></g><g fill="#8a8279" fill-opacity="1"><g transform="translate(586.125023, 309.688334)"><g><path d="M 1.4375 6.1875 C 0.601562 6.1875 -0.160156 6.066406 -0.859375 5.828125 C -1.554688 5.585938 -2.21875 5.253906 -2.84375 4.828125 L -1.25 2.625 C -0.894531 2.90625 -0.425781 3.140625 0.15625 3.328125 C 0.738281 3.515625 1.269531 3.609375 1.75 3.609375 C 2.582031 3.609375 3.394531 3.347656 4.1875 2.828125 C 4.988281 2.304688 5.882812 1.351562 6.875 -0.03125 L 3.3125 -19.640625 L 6.34375 -19.640625 L 9.078125 -3.265625 L 19.640625 -19.640625 L 22.953125 -19.640625 L 9.5 0.640625 C 8.101562 2.671875 6.773438 4.101562 5.515625 4.9375 C 4.265625 5.769531 2.90625 6.1875 1.4375 6.1875 Z M 1.4375 6.1875 "/></g></g></g><g fill="#8a8279" fill-opacity="1"><g transform="translate(607.476653, 309.688334)"><g><path d="M 8.25 0.421875 C 6.726562 0.421875 5.21875 0.132812 3.71875 -0.4375 C 2.226562 -1.007812 0.910156 -1.863281 -0.234375 -3 L 1.671875 -4.90625 C 2.734375 -3.882812 3.847656 -3.144531 5.015625 -2.6875 C 6.179688 -2.238281 7.347656 -2.015625 8.515625 -2.015625 C 9.628906 -2.015625 10.628906 -2.3125 11.515625 -2.90625 C 12.398438 -3.5 12.84375 -4.289062 12.84375 -5.28125 C 12.84375 -5.9375 12.578125 -6.519531 12.046875 -7.03125 C 11.515625 -7.539062 10.539062 -8.070312 9.125 -8.625 C 7.34375 -9.3125 5.972656 -10.039062 5.015625 -10.8125 C 4.054688 -11.582031 3.578125 -12.648438 3.578125 -14.015625 C 3.578125 -15.128906 3.878906 -16.144531 4.484375 -17.0625 C 5.085938 -17.976562 5.945312 -18.707031 7.0625 -19.25 C 8.175781 -19.789062 9.492188 -20.0625 11.015625 -20.0625 C 12.460938 -20.0625 13.832031 -19.789062 15.125 -19.25 C 16.414062 -18.707031 17.46875 -18.078125 18.28125 -17.359375 L 16.5625 -15.359375 C 15.757812 -16.015625 14.851562 -16.554688 13.84375 -16.984375 C 12.84375 -17.410156 11.8125 -17.625 10.75 -17.625 C 9.351562 -17.625 8.296875 -17.304688 7.578125 -16.671875 C 6.859375 -16.046875 6.5 -15.328125 6.5 -14.515625 C 6.5 -13.878906 6.765625 -13.3125 7.296875 -12.8125 C 7.828125 -12.320312 8.863281 -11.773438 10.40625 -11.171875 C 12.1875 -10.460938 13.523438 -9.703125 14.421875 -8.890625 C 15.316406 -8.078125 15.765625 -7.039062 15.765625 -5.78125 C 15.765625 -4.5625 15.425781 -3.488281 14.75 -2.5625 C 14.082031 -1.632812 13.179688 -0.90625 12.046875 -0.375 C 10.910156 0.15625 9.644531 0.421875 8.25 0.421875 Z M 8.25 0.421875 "/></g></g></g><g fill="#8a8279" fill-opacity="1"><g transform="translate(626.244836, 309.688334)"><g><path d="M 7.671875 0.34375 C 6.285156 0.34375 5.140625 0.015625 4.234375 -0.640625 C 3.335938 -1.304688 2.890625 -2.269531 2.890625 -3.53125 C 2.890625 -3.882812 2.914062 -4.238281 2.96875 -4.59375 C 3.019531 -4.945312 3.082031 -5.28125 3.15625 -5.59375 L 6.234375 -17.0625 L 3.53125 -17.0625 L 4.21875 -19.640625 L 6.953125 -19.640625 L 8.546875 -25.578125 L 11.4375 -25.578125 L 9.84375 -19.640625 L 16.03125 -19.640625 L 15.359375 -17.0625 L 9.15625 -17.0625 L 6.125 -5.734375 C 6.09375 -5.503906 6.054688 -5.253906 6.015625 -4.984375 C 5.984375 -4.722656 5.96875 -4.492188 5.96875 -4.296875 C 5.96875 -3.609375 6.207031 -3.097656 6.6875 -2.765625 C 7.164062 -2.441406 7.820312 -2.28125 8.65625 -2.28125 C 9.519531 -2.28125 10.472656 -2.484375 11.515625 -2.890625 L 10.796875 -0.234375 C 10.285156 -0.0234375 9.78125 0.117188 9.28125 0.203125 C 8.789062 0.296875 8.253906 0.34375 7.671875 0.34375 Z M 7.671875 0.34375 "/></g></g></g><g fill="#8a8279" fill-opacity="1"><g transform="translate(641.403759, 309.688334)"><g><path d="M 4.78125 -8.8125 C 4.757812 -8.6875 4.75 -8.550781 4.75 -8.40625 C 4.75 -8.269531 4.75 -8.140625 4.75 -8.015625 C 4.75 -6.242188 5.28125 -4.8125 6.34375 -3.71875 C 7.40625 -2.632812 8.847656 -2.09375 10.671875 -2.09375 C 11.941406 -2.09375 13.046875 -2.300781 13.984375 -2.71875 C 14.921875 -3.132812 15.832031 -3.695312 16.71875 -4.40625 L 18.234375 -2.46875 C 17.273438 -1.65625 16.179688 -0.960938 14.953125 -0.390625 C 13.722656 0.171875 12.25 0.453125 10.53125 0.453125 C 8.800781 0.453125 7.273438 0.101562 5.953125 -0.59375 C 4.640625 -1.289062 3.625 -2.269531 2.90625 -3.53125 C 2.1875 -4.800781 1.828125 -6.257812 1.828125 -7.90625 C 1.828125 -9.394531 2.109375 -10.863281 2.671875 -12.3125 C 3.242188 -13.757812 4.039062 -15.0625 5.0625 -16.21875 C 6.09375 -17.382812 7.304688 -18.316406 8.703125 -19.015625 C 10.097656 -19.710938 11.617188 -20.0625 13.265625 -20.0625 C 14.929688 -20.0625 16.328125 -19.71875 17.453125 -19.03125 C 18.585938 -18.351562 19.4375 -17.441406 20 -16.296875 C 20.570312 -15.160156 20.859375 -13.910156 20.859375 -12.546875 C 20.859375 -11.878906 20.796875 -11.234375 20.671875 -10.609375 C 20.546875 -9.992188 20.378906 -9.394531 20.171875 -8.8125 Z M 5.203125 -11.015625 L 17.828125 -11.015625 C 17.953125 -11.398438 18.015625 -11.910156 18.015625 -12.546875 C 18.015625 -13.878906 17.617188 -15.050781 16.828125 -16.0625 C 16.046875 -17.082031 14.804688 -17.59375 13.109375 -17.59375 C 11.816406 -17.59375 10.640625 -17.296875 9.578125 -16.703125 C 8.515625 -16.109375 7.609375 -15.316406 6.859375 -14.328125 C 6.109375 -13.335938 5.554688 -12.234375 5.203125 -11.015625 Z M 5.203125 -11.015625 "/></g></g></g><g fill="#8a8279" fill-opacity="1"><g transform="translate(664.08518, 309.688334)"><g><path d="M 0.640625 0 L 5.890625 -19.640625 L 8.8125 -19.640625 L 7.984375 -16.453125 C 8.867188 -17.460938 9.816406 -18.316406 10.828125 -19.015625 C 11.835938 -19.710938 13.066406 -20.0625 14.515625 -20.0625 C 15.628906 -20.0625 16.566406 -19.851562 17.328125 -19.4375 C 18.085938 -19.019531 18.695312 -18.46875 19.15625 -17.78125 C 19.613281 -17.101562 19.929688 -16.382812 20.109375 -15.625 C 20.992188 -16.957031 22.09375 -18.03125 23.40625 -18.84375 C 24.726562 -19.65625 26.257812 -20.0625 28 -20.0625 C 29.78125 -20.0625 31.226562 -19.503906 32.34375 -18.390625 C 33.457031 -17.273438 34.015625 -15.804688 34.015625 -13.984375 C 34.015625 -13.523438 33.957031 -13.03125 33.84375 -12.5 C 33.726562 -11.96875 33.609375 -11.445312 33.484375 -10.9375 L 30.546875 0 L 27.625 0 L 30.625 -11.140625 C 30.800781 -11.898438 30.890625 -12.632812 30.890625 -13.34375 C 30.890625 -14.601562 30.53125 -15.597656 29.8125 -16.328125 C 29.09375 -17.066406 28.097656 -17.4375 26.828125 -17.4375 C 25.867188 -17.4375 24.929688 -17.164062 24.015625 -16.625 C 23.097656 -16.082031 22.285156 -15.328125 21.578125 -14.359375 C 20.867188 -13.398438 20.351562 -12.3125 20.03125 -11.09375 L 17.09375 0 L 14.171875 0 L 17.140625 -11.140625 C 17.242188 -11.460938 17.316406 -11.828125 17.359375 -12.234375 C 17.410156 -12.640625 17.4375 -13.007812 17.4375 -13.34375 C 17.4375 -14.601562 17.066406 -15.597656 16.328125 -16.328125 C 15.597656 -17.066406 14.601562 -17.4375 13.34375 -17.4375 C 12.375 -17.4375 11.429688 -17.164062 10.515625 -16.625 C 9.609375 -16.082031 8.800781 -15.328125 8.09375 -14.359375 C 7.382812 -13.398438 6.863281 -12.3125 6.53125 -11.09375 L 3.578125 0 Z M 0.640625 0 "/></g></g></g><g fill="#8a8279" fill-opacity="1"><g transform="translate(700.481796, 309.688334)"><g><path d="M 8.25 0.421875 C 6.726562 0.421875 5.21875 0.132812 3.71875 -0.4375 C 2.226562 -1.007812 0.910156 -1.863281 -0.234375 -3 L 1.671875 -4.90625 C 2.734375 -3.882812 3.847656 -3.144531 5.015625 -2.6875 C 6.179688 -2.238281 7.347656 -2.015625 8.515625 -2.015625 C 9.628906 -2.015625 10.628906 -2.3125 11.515625 -2.90625 C 12.398438 -3.5 12.84375 -4.289062 12.84375 -5.28125 C 12.84375 -5.9375 12.578125 -6.519531 12.046875 -7.03125 C 11.515625 -7.539062 10.539062 -8.070312 9.125 -8.625 C 7.34375 -9.3125 5.972656 -10.039062 5.015625 -10.8125 C 4.054688 -11.582031 3.578125 -12.648438 3.578125 -14.015625 C 3.578125 -15.128906 3.878906 -16.144531 4.484375 -17.0625 C 5.085938 -17.976562 5.945312 -18.707031 7.0625 -19.25 C 8.175781 -19.789062 9.492188 -20.0625 11.015625 -20.0625 C 12.460938 -20.0625 13.832031 -19.789062 15.125 -19.25 C 16.414062 -18.707031 17.46875 -18.078125 18.28125 -17.359375 L 16.5625 -15.359375 C 15.757812 -16.015625 14.851562 -16.554688 13.84375 -16.984375 C 12.84375 -17.410156 11.8125 -17.625 10.75 -17.625 C 9.351562 -17.625 8.296875 -17.304688 7.578125 -16.671875 C 6.859375 -16.046875 6.5 -15.328125 6.5 -14.515625 C 6.5 -13.878906 6.765625 -13.3125 7.296875 -12.8125 C 7.828125 -12.320312 8.863281 -11.773438 10.40625 -11.171875 C 12.1875 -10.460938 13.523438 -9.703125 14.421875 -8.890625 C 15.316406 -8.078125 15.765625 -7.039062 15.765625 -5.78125 C 15.765625 -4.5625 15.425781 -3.488281 14.75 -2.5625 C 14.082031 -1.632812 13.179688 -0.90625 12.046875 -0.375 C 10.910156 0.15625 9.644531 0.421875 8.25 0.421875 Z M 8.25 0.421875 "/></g></g></g><g fill="#8a8279" fill-opacity="1"><g transform="translate(719.629934, 309.688334)"><g/></g></g><g fill="#8a8279" fill-opacity="1"><g transform="translate(731.331597, 309.688334)"><g><path d="M 1.75 0 L 6.34375 -17.0625 L 3.640625 -17.0625 L 4.328125 -19.640625 L 7.03125 -19.640625 L 7.671875 -22 C 8.179688 -23.976562 9.003906 -25.441406 10.140625 -26.390625 C 11.285156 -27.335938 12.707031 -27.8125 14.40625 -27.8125 C 15.945312 -27.8125 17.25 -27.535156 18.3125 -26.984375 L 17.625 -24.46875 C 17.070312 -24.75 16.539062 -24.953125 16.03125 -25.078125 C 15.53125 -25.203125 14.988281 -25.265625 14.40625 -25.265625 C 13.46875 -25.265625 12.660156 -24.96875 11.984375 -24.375 C 11.316406 -23.78125 10.804688 -22.835938 10.453125 -21.546875 L 9.953125 -19.640625 L 16.375 -19.640625 L 15.65625 -17.0625 L 9.265625 -17.0625 L 4.671875 0 Z M 1.75 0 "/></g></g></g><g fill="#8a8279" fill-opacity="1"><g transform="translate(745.502723, 309.688334)"><g><path d="M 10.796875 0.453125 C 8.992188 0.453125 7.421875 0.0703125 6.078125 -0.6875 C 4.734375 -1.445312 3.691406 -2.488281 2.953125 -3.8125 C 2.222656 -5.144531 1.859375 -6.660156 1.859375 -8.359375 C 1.859375 -9.878906 2.160156 -11.34375 2.765625 -12.75 C 3.378906 -14.15625 4.21875 -15.40625 5.28125 -16.5 C 6.34375 -17.601562 7.570312 -18.472656 8.96875 -19.109375 C 10.363281 -19.742188 11.84375 -20.0625 13.40625 -20.0625 C 15.207031 -20.0625 16.78125 -19.679688 18.125 -18.921875 C 19.46875 -18.160156 20.507812 -17.117188 21.25 -15.796875 C 22 -14.484375 22.375 -12.976562 22.375 -11.28125 C 22.375 -9.71875 22.0625 -8.234375 21.4375 -6.828125 C 20.820312 -5.421875 19.976562 -4.171875 18.90625 -3.078125 C 17.832031 -1.984375 16.597656 -1.117188 15.203125 -0.484375 C 13.804688 0.140625 12.335938 0.453125 10.796875 0.453125 Z M 10.984375 -2.171875 C 12.097656 -2.171875 13.15625 -2.414062 14.15625 -2.90625 C 15.15625 -3.394531 16.046875 -4.0625 16.828125 -4.90625 C 17.617188 -5.757812 18.238281 -6.722656 18.6875 -7.796875 C 19.144531 -8.878906 19.375 -10.003906 19.375 -11.171875 C 19.375 -13.171875 18.800781 -14.722656 17.65625 -15.828125 C 16.519531 -16.929688 15.039062 -17.484375 13.21875 -17.484375 C 12.082031 -17.484375 11.015625 -17.226562 10.015625 -16.71875 C 9.015625 -16.207031 8.117188 -15.519531 7.328125 -14.65625 C 6.546875 -13.800781 5.929688 -12.832031 5.484375 -11.75 C 5.046875 -10.675781 4.828125 -9.570312 4.828125 -8.4375 C 4.828125 -6.4375 5.394531 -4.890625 6.53125 -3.796875 C 7.675781 -2.710938 9.160156 -2.171875 10.984375 -2.171875 Z M 10.984375 -2.171875 "/></g></g></g><g fill="#8a8279" fill-opacity="1"><g transform="translate(770.045766, 309.688334)"><g><path d="M 0.640625 0 L 5.890625 -19.640625 L 8.8125 -19.640625 L 7.484375 -14.515625 C 8.671875 -16.234375 10.035156 -17.601562 11.578125 -18.625 C 13.128906 -19.65625 14.878906 -20.109375 16.828125 -19.984375 L 16 -16.828125 L 15.8125 -16.828125 C 14.394531 -16.828125 13 -16.484375 11.625 -15.796875 C 10.257812 -15.117188 9.054688 -14.101562 8.015625 -12.75 C 6.972656 -11.394531 6.1875 -9.726562 5.65625 -7.75 L 3.578125 0 Z M 0.640625 0 "/></g></g></g><g fill="#8a8279" fill-opacity="1"><g transform="translate(785.622638, 309.688334)"><g/></g></g><g fill="#8a8279" fill-opacity="1"><g transform="translate(797.32429, 309.688334)"><g><path d="M 15.046875 0.5 C 12.890625 0.5 10.914062 0.0507812 9.125 -0.84375 C 7.34375 -1.75 5.921875 -3.046875 4.859375 -4.734375 C 3.796875 -6.421875 3.265625 -8.453125 3.265625 -10.828125 C 3.265625 -12.878906 3.675781 -14.875 4.5 -16.8125 C 5.320312 -18.75 6.46875 -20.484375 7.9375 -22.015625 C 9.40625 -23.546875 11.132812 -24.769531 13.125 -25.6875 C 15.113281 -26.601562 17.273438 -27.0625 19.609375 -27.0625 C 21.429688 -27.0625 22.988281 -26.828125 24.28125 -26.359375 C 25.570312 -25.890625 26.644531 -25.285156 27.5 -24.546875 C 28.363281 -23.816406 29.078125 -23.03125 29.640625 -22.1875 L 27.359375 -20.40625 C 26.847656 -21.144531 26.242188 -21.800781 25.546875 -22.375 C 24.859375 -22.957031 24.015625 -23.425781 23.015625 -23.78125 C 22.015625 -24.132812 20.789062 -24.3125 19.34375 -24.3125 C 17.488281 -24.3125 15.773438 -23.9375 14.203125 -23.1875 C 12.640625 -22.445312 11.273438 -21.4375 10.109375 -20.15625 C 8.941406 -18.875 8.035156 -17.4375 7.390625 -15.84375 C 6.742188 -14.25 6.421875 -12.613281 6.421875 -10.9375 C 6.421875 -9.113281 6.789062 -7.554688 7.53125 -6.265625 C 8.28125 -4.972656 9.320312 -3.984375 10.65625 -3.296875 C 11.988281 -2.617188 13.515625 -2.28125 15.234375 -2.28125 C 16.679688 -2.28125 17.972656 -2.457031 19.109375 -2.8125 C 20.253906 -3.164062 21.253906 -3.609375 22.109375 -4.140625 L 24.203125 -11.515625 L 16.1875 -11.515625 L 16.90625 -14.21875 L 27.890625 -14.21875 L 24.515625 -2.28125 C 23.117188 -1.414062 21.65625 -0.734375 20.125 -0.234375 C 18.59375 0.253906 16.898438 0.5 15.046875 0.5 Z M 15.046875 0.5 "/></g></g></g><g fill="#8a8279" fill-opacity="1"><g transform="translate(827.414192, 309.688334)"><g><path d="M 0.640625 0 L 5.890625 -19.640625 L 8.8125 -19.640625 L 7.484375 -14.515625 C 8.671875 -16.234375 10.035156 -17.601562 11.578125 -18.625 C 13.128906 -19.65625 14.878906 -20.109375 16.828125 -19.984375 L 16 -16.828125 L 15.8125 -16.828125 C 14.394531 -16.828125 13 -16.484375 11.625 -15.796875 C 10.257812 -15.117188 9.054688 -14.101562 8.015625 -12.75 C 6.972656 -11.394531 6.1875 -9.726562 5.65625 -7.75 L 3.578125 0 Z M 0.640625 0 "/></g></g></g><g fill="#8a8279" fill-opacity="1"><g transform="translate(842.801093, 309.688334)"><g><path d="M 10.796875 0.453125 C 8.992188 0.453125 7.421875 0.0703125 6.078125 -0.6875 C 4.734375 -1.445312 3.691406 -2.488281 2.953125 -3.8125 C 2.222656 -5.144531 1.859375 -6.660156 1.859375 -8.359375 C 1.859375 -9.878906 2.160156 -11.34375 2.765625 -12.75 C 3.378906 -14.15625 4.21875 -15.40625 5.28125 -16.5 C 6.34375 -17.601562 7.570312 -18.472656 8.96875 -19.109375 C 10.363281 -19.742188 11.84375 -20.0625 13.40625 -20.0625 C 15.207031 -20.0625 16.78125 -19.679688 18.125 -18.921875 C 19.46875 -18.160156 20.507812 -17.117188 21.25 -15.796875 C 22 -14.484375 22.375 -12.976562 22.375 -11.28125 C 22.375 -9.71875 22.0625 -8.234375 21.4375 -6.828125 C 20.820312 -5.421875 19.976562 -4.171875 18.90625 -3.078125 C 17.832031 -1.984375 16.597656 -1.117188 15.203125 -0.484375 C 13.804688 0.140625 12.335938 0.453125 10.796875 0.453125 Z M 10.984375 -2.171875 C 12.097656 -2.171875 13.15625 -2.414062 14.15625 -2.90625 C 15.15625 -3.394531 16.046875 -4.0625 16.828125 -4.90625 C 17.617188 -5.757812 18.238281 -6.722656 18.6875 -7.796875 C 19.144531 -8.878906 19.375 -10.003906 19.375 -11.171875 C 19.375 -13.171875 18.800781 -14.722656 17.65625 -15.828125 C 16.519531 -16.929688 15.039062 -17.484375 13.21875 -17.484375 C 12.082031 -17.484375 11.015625 -17.226562 10.015625 -16.71875 C 9.015625 -16.207031 8.117188 -15.519531 7.328125 -14.65625 C 6.546875 -13.800781 5.929688 -12.832031 5.484375 -11.75 C 5.046875 -10.675781 4.828125 -9.570312 4.828125 -8.4375 C 4.828125 -6.4375 5.394531 -4.890625 6.53125 -3.796875 C 7.675781 -2.710938 9.160156 -2.171875 10.984375 -2.171875 Z M 10.984375 -2.171875 "/></g></g></g><g fill="#8a8279" fill-opacity="1"><g transform="translate(866.432248, 309.688334)"><g><path d="M 5.203125 0.15625 L 3.640625 -19.640625 L 6.609375 -19.640625 L 7.640625 -3.984375 L 17.140625 -19.71875 L 19.5625 -19.71875 L 20.671875 -3.984375 L 30.140625 -19.640625 L 33.171875 -19.640625 L 20.9375 0.15625 L 18.359375 0.15625 L 17.21875 -15.359375 L 7.75 0.15625 Z M 5.203125 0.15625 "/></g></g></g><g fill="#8a8279" fill-opacity="1"><g transform="translate(898.953653, 309.688334)"><g><path d="M 7.671875 0.34375 C 6.285156 0.34375 5.140625 0.015625 4.234375 -0.640625 C 3.335938 -1.304688 2.890625 -2.269531 2.890625 -3.53125 C 2.890625 -3.882812 2.914062 -4.238281 2.96875 -4.59375 C 3.019531 -4.945312 3.082031 -5.28125 3.15625 -5.59375 L 6.234375 -17.0625 L 3.53125 -17.0625 L 4.21875 -19.640625 L 6.953125 -19.640625 L 8.546875 -25.578125 L 11.4375 -25.578125 L 9.84375 -19.640625 L 16.03125 -19.640625 L 15.359375 -17.0625 L 9.15625 -17.0625 L 6.125 -5.734375 C 6.09375 -5.503906 6.054688 -5.253906 6.015625 -4.984375 C 5.984375 -4.722656 5.96875 -4.492188 5.96875 -4.296875 C 5.96875 -3.609375 6.207031 -3.097656 6.6875 -2.765625 C 7.164062 -2.441406 7.820312 -2.28125 8.65625 -2.28125 C 9.519531 -2.28125 10.472656 -2.484375 11.515625 -2.890625 L 10.796875 -0.234375 C 10.285156 -0.0234375 9.78125 0.117188 9.28125 0.203125 C 8.789062 0.296875 8.253906 0.34375 7.671875 0.34375 Z M 7.671875 0.34375 "/></g></g></g><g fill="#8a8279" fill-opacity="1"><g transform="translate(914.492531, 309.688334)"><g><path d="M 0.640625 0 L 8.09375 -27.734375 L 11.015625 -27.734375 L 7.984375 -16.453125 C 8.867188 -17.460938 9.851562 -18.316406 10.9375 -19.015625 C 12.03125 -19.710938 13.320312 -20.0625 14.8125 -20.0625 C 16.71875 -20.0625 18.238281 -19.515625 19.375 -18.421875 C 20.519531 -17.335938 21.09375 -15.859375 21.09375 -13.984375 C 21.09375 -13.523438 21.039062 -13.03125 20.9375 -12.5 C 20.832031 -11.96875 20.71875 -11.445312 20.59375 -10.9375 L 17.703125 0 L 14.78125 0 L 17.75 -11.140625 C 17.84375 -11.460938 17.914062 -11.828125 17.96875 -12.234375 C 18.019531 -12.640625 18.046875 -13.007812 18.046875 -13.34375 C 18.046875 -14.632812 17.648438 -15.640625 16.859375 -16.359375 C 16.078125 -17.078125 15.003906 -17.4375 13.640625 -17.4375 C 12.628906 -17.4375 11.640625 -17.164062 10.671875 -16.625 C 9.710938 -16.082031 8.867188 -15.332031 8.140625 -14.375 C 7.421875 -13.425781 6.882812 -12.332031 6.53125 -11.09375 L 3.578125 0 Z M 0.640625 0 "/></g></g></g><g fill="#c2654a" fill-opacity="1"><g transform="translate(877.638468, 246.438365)"><g><path d="M 84.265625 0 L 51.265625 -77.546875 L 35.640625 -77.546875 L 2.640625 0 L 19.90625 0 L 26.953125 -17.265625 L 59.515625 -17.265625 L 66.546875 0 Z M 53.453125 -32.234375 L 33 -32.234375 L 43.234375 -57.203125 Z M 53.453125 -32.234375 "/></g></g></g><g fill="#c2654a" fill-opacity="1"><g transform="translate(964.752296, 246.438365)"><g><path d="M 74.6875 -21.125 L 74.6875 -21.34375 C 74.6875 -26.476562 73.398438 -30.492188 70.828125 -33.390625 C 68.265625 -36.285156 64.75 -38.578125 60.28125 -40.265625 C 61.675781 -40.992188 62.976562 -41.867188 64.1875 -42.890625 C 65.394531 -43.921875 66.457031 -45.113281 67.375 -46.46875 C 68.289062 -47.832031 69.023438 -49.351562 69.578125 -51.03125 C 70.128906 -52.71875 70.40625 -54.664062 70.40625 -56.875 L 70.40625 -57.09375 C 70.40625 -63.175781 68.148438 -68.015625 63.640625 -71.609375 C 59.128906 -75.203125 52.910156 -77 44.984375 -77 L 9.234375 -77 L 9.234375 0 L 45.875 0 C 50.195312 0 54.132812 -0.4375 57.6875 -1.3125 C 61.25 -2.195312 64.296875 -3.519531 66.828125 -5.28125 C 69.359375 -7.039062 71.300781 -9.238281 72.65625 -11.875 C 74.007812 -14.519531 74.6875 -17.601562 74.6875 -21.125 Z M 53.5625 -54.015625 C 53.5625 -51.148438 52.460938 -49.078125 50.265625 -47.796875 C 48.066406 -46.515625 45.097656 -45.875 41.359375 -45.875 L 25.734375 -45.875 L 25.734375 -62.15625 L 42.453125 -62.15625 C 46.046875 -62.15625 48.796875 -61.472656 50.703125 -60.109375 C 52.609375 -58.753906 53.5625 -56.796875 53.5625 -54.234375 Z M 57.859375 -23.203125 C 57.859375 -20.347656 56.796875 -18.238281 54.671875 -16.875 C 52.546875 -15.519531 49.613281 -14.84375 45.875 -14.84375 L 25.734375 -14.84375 L 25.734375 -31.796875 L 45.3125 -31.796875 C 49.71875 -31.796875 52.910156 -31.039062 54.890625 -29.53125 C 56.867188 -28.03125 57.859375 -26 57.859375 -23.4375 Z M 57.859375 -23.203125 "/></g></g></g><g fill="#c2654a" fill-opacity="1"><g transform="translate(1044.386654, 246.438365)"><g><path d="M 84.265625 0 L 51.265625 -77.546875 L 35.640625 -77.546875 L 2.640625 0 L 19.90625 0 L 26.953125 -17.265625 L 59.515625 -17.265625 L 66.546875 0 Z M 53.453125 -32.234375 L 33 -32.234375 L 43.234375 -57.203125 Z M 53.453125 -32.234375 "/></g></g></g><g fill="#c2654a" fill-opacity="1"><g transform="translate(1131.500493, 246.438365)"><g><path d="M 80.1875 -38.5 L 80.1875 -38.71875 C 80.1875 -44.144531 79.195312 -49.1875 77.21875 -53.84375 C 75.238281 -58.5 72.429688 -62.550781 68.796875 -66 C 65.171875 -69.445312 60.847656 -72.140625 55.828125 -74.078125 C 50.804688 -76.023438 45.285156 -77 39.265625 -77 L 9.234375 -77 L 9.234375 0 L 39.265625 0 C 45.285156 0 50.804688 -0.988281 55.828125 -2.96875 C 60.847656 -4.945312 65.171875 -7.660156 68.796875 -11.109375 C 72.429688 -14.554688 75.238281 -18.625 77.21875 -23.3125 C 79.195312 -28.007812 80.1875 -33.070312 80.1875 -38.5 Z M 62.484375 -38.28125 C 62.484375 -34.832031 61.910156 -31.710938 60.765625 -28.921875 C 59.628906 -26.140625 58.050781 -23.722656 56.03125 -21.671875 C 54.019531 -19.617188 51.582031 -18.039062 48.71875 -16.9375 C 45.863281 -15.84375 42.710938 -15.296875 39.265625 -15.296875 L 26.1875 -15.296875 L 26.1875 -61.703125 L 39.265625 -61.703125 C 42.710938 -61.703125 45.863281 -61.132812 48.71875 -60 C 51.582031 -58.863281 54.019531 -57.269531 56.03125 -55.21875 C 58.050781 -53.164062 59.628906 -50.707031 60.765625 -47.84375 C 61.910156 -44.988281 62.484375 -41.875 62.484375 -38.5 Z M 62.484375 -38.28125 "/></g></g></g><g mask="url(#22ce339a40)"><g transform="matrix(1, 0, 0, 1, 309, 161)"><g clip-path="url(#d2c5a14eed)"><g fill="#ffffff" fill-opacity="1"><g transform="translate(0.340785, 78.31338)"><g><path d="M 9.15625 0 L 9.15625 -61.59375 L 51.75 -61.59375 L 51.75 -59.84375 L 11.09375 -59.84375 L 11.09375 -31.234375 L 47.953125 -31.234375 L 47.953125 -29.484375 L 11.09375 -29.484375 L 11.09375 0 Z M 9.15625 0 "/></g></g></g><g fill="#ffffff" fill-opacity="1"><g transform="translate(56.834356, 78.31338)"><g><path d="M 9.15625 0 L 9.15625 -61.59375 L 34.3125 -61.59375 C 42.238281 -61.59375 48.140625 -59.660156 52.015625 -55.796875 C 54.941406 -52.859375 56.40625 -49.046875 56.40625 -44.359375 L 56.40625 -44.171875 C 56.40625 -40.710938 55.550781 -37.734375 53.84375 -35.234375 C 52.144531 -32.742188 49.785156 -30.796875 46.765625 -29.390625 C 43.742188 -27.984375 40.238281 -27.160156 36.25 -26.921875 L 56.765625 0 L 54.390625 0 L 33.96875 -26.84375 L 11.09375 -26.84375 L 11.09375 0 Z M 11.09375 -28.59375 L 33.359375 -28.59375 C 38.109375 -28.59375 42.035156 -29.28125 45.140625 -30.65625 C 48.253906 -32.039062 50.585938 -33.90625 52.140625 -36.25 C 53.691406 -38.601562 54.46875 -41.21875 54.46875 -44.09375 L 54.46875 -44.265625 C 54.46875 -49.128906 52.675781 -52.941406 49.09375 -55.703125 C 45.519531 -58.460938 40.535156 -59.84375 34.140625 -59.84375 L 11.09375 -59.84375 Z M 11.09375 -28.59375 "/></g></g></g><g fill="#ffffff" fill-opacity="1"><g transform="translate(121.247559, 78.31338)"><g><path d="M 3.25 0 L 32.90625 -62.046875 L 34.578125 -62.046875 L 64.234375 0 L 62.125 0 L 53.328125 -18.484375 L 14.078125 -18.484375 L 5.28125 0 Z M 14.953125 -20.234375 L 52.453125 -20.234375 L 33.703125 -59.484375 Z M 14.953125 -20.234375 "/></g></g></g><g fill="#ffffff" fill-opacity="1"><g transform="translate(190.324573, 78.31338)"><g><path d="M 9.15625 0 L 9.15625 -61.59375 L 10.828125 -61.59375 L 57.640625 -3.171875 L 57.640625 -61.59375 L 59.484375 -61.59375 L 59.484375 0 L 57.8125 0 L 11 -58.4375 L 11 0 Z M 9.15625 0 "/></g></g></g><g fill="#ffffff" fill-opacity="1"><g transform="translate(260.545537, 78.31338)"><g><path d="M 36.515625 1.0625 C 32.179688 1.0625 28.179688 0.238281 24.515625 -1.40625 C 20.847656 -3.050781 17.660156 -5.320312 14.953125 -8.21875 C 12.253906 -11.125 10.15625 -14.5 8.65625 -18.34375 C 7.164062 -22.1875 6.421875 -26.28125 6.421875 -30.625 L 6.421875 -30.796875 C 6.421875 -35.140625 7.164062 -39.234375 8.65625 -43.078125 C 10.15625 -46.921875 12.253906 -50.304688 14.953125 -53.234375 C 17.660156 -56.171875 20.859375 -58.472656 24.546875 -60.140625 C 28.242188 -61.816406 32.296875 -62.65625 36.703125 -62.65625 C 40.566406 -62.65625 43.890625 -62.210938 46.671875 -61.328125 C 49.460938 -60.453125 51.925781 -59.28125 54.0625 -57.8125 C 56.207031 -56.34375 58.222656 -54.703125 60.109375 -52.890625 L 58.78125 -51.5625 C 57.132812 -53.144531 55.300781 -54.65625 53.28125 -56.09375 C 51.257812 -57.53125 48.898438 -58.6875 46.203125 -59.5625 C 43.503906 -60.445312 40.304688 -60.890625 36.609375 -60.890625 C 32.503906 -60.890625 28.734375 -60.097656 25.296875 -58.515625 C 21.867188 -56.929688 18.890625 -54.742188 16.359375 -51.953125 C 13.835938 -49.171875 11.875 -45.972656 10.46875 -42.359375 C 9.0625 -38.753906 8.359375 -34.929688 8.359375 -30.890625 L 8.359375 -30.71875 C 8.359375 -26.664062 9.0625 -22.820312 10.46875 -19.1875 C 11.875 -15.550781 13.851562 -12.351562 16.40625 -9.59375 C 18.957031 -6.832031 21.945312 -4.660156 25.375 -3.078125 C 28.8125 -1.492188 32.554688 -0.703125 36.609375 -0.703125 C 41.648438 -0.703125 46.035156 -1.710938 49.765625 -3.734375 C 53.492188 -5.765625 56.585938 -8.097656 59.046875 -10.734375 L 60.453125 -9.421875 C 57.753906 -6.597656 54.4375 -4.144531 50.5 -2.0625 C 46.570312 0.0195312 41.910156 1.0625 36.515625 1.0625 Z M 36.515625 1.0625 "/></g></g></g><g fill="#ffffff" fill-opacity="1"><g transform="translate(326.014709, 78.31338)"><g><path d="M 9.765625 0 L 9.765625 -61.59375 L 11.703125 -61.59375 L 11.703125 0 Z M 9.765625 0 "/></g></g></g><g fill="#ffffff" fill-opacity="1"><g transform="translate(349.069745, 78.31338)"><g><path d="M 29.5625 0.875 C 24.875 0.875 20.460938 0.0078125 16.328125 -1.71875 C 12.191406 -3.445312 8.476562 -5.863281 5.1875 -8.96875 L 6.59375 -10.390625 C 9.707031 -7.335938 13.226562 -4.988281 17.15625 -3.34375 C 21.09375 -1.695312 25.289062 -0.875 29.75 -0.875 C 33.613281 -0.875 36.953125 -1.503906 39.765625 -2.765625 C 42.585938 -4.023438 44.773438 -5.753906 46.328125 -7.953125 C 47.878906 -10.160156 48.65625 -12.644531 48.65625 -15.40625 L 48.65625 -15.578125 C 48.65625 -18.097656 48.054688 -20.265625 46.859375 -22.078125 C 45.660156 -23.898438 43.609375 -25.472656 40.703125 -26.796875 C 37.796875 -28.117188 33.734375 -29.304688 28.515625 -30.359375 C 20.890625 -31.878906 15.476562 -33.882812 12.28125 -36.375 C 9.082031 -38.875 7.484375 -42.265625 7.484375 -46.546875 L 7.484375 -46.734375 C 7.484375 -49.609375 8.347656 -52.234375 10.078125 -54.609375 C 11.804688 -56.984375 14.179688 -58.890625 17.203125 -60.328125 C 20.222656 -61.765625 23.671875 -62.484375 27.546875 -62.484375 C 31.585938 -62.484375 35.382812 -61.851562 38.9375 -60.59375 C 42.488281 -59.332031 45.671875 -57.613281 48.484375 -55.4375 L 47.25 -53.859375 C 44.550781 -55.910156 41.515625 -57.566406 38.140625 -58.828125 C 34.773438 -60.085938 31.1875 -60.71875 27.375 -60.71875 C 23.789062 -60.71875 20.648438 -60.054688 17.953125 -58.734375 C 15.253906 -57.421875 13.15625 -55.707031 11.65625 -53.59375 C 10.164062 -51.476562 9.421875 -49.21875 9.421875 -46.8125 L 9.421875 -46.640625 C 9.421875 -44.171875 10.019531 -42.039062 11.21875 -40.25 C 12.425781 -38.46875 14.476562 -36.929688 17.375 -35.640625 C 20.28125 -34.347656 24.253906 -33.175781 29.296875 -32.125 C 34.640625 -31.0625 38.863281 -29.78125 41.96875 -28.28125 C 45.082031 -26.789062 47.296875 -25.019531 48.609375 -22.96875 C 49.929688 -20.914062 50.59375 -18.476562 50.59375 -15.65625 L 50.59375 -15.484375 C 50.59375 -12.429688 49.742188 -9.671875 48.046875 -7.203125 C 46.347656 -4.742188 43.925781 -2.78125 40.78125 -1.3125 C 37.644531 0.144531 33.90625 0.875 29.5625 0.875 Z M 29.5625 0.875 "/></g></g></g><g fill="#ffffff" fill-opacity="1"><g transform="translate(407.147225, 78.31338)"><g><path d="M 36.515625 1.0625 C 32.179688 1.0625 28.179688 0.238281 24.515625 -1.40625 C 20.847656 -3.050781 17.660156 -5.320312 14.953125 -8.21875 C 12.253906 -11.125 10.15625 -14.5 8.65625 -18.34375 C 7.164062 -22.1875 6.421875 -26.28125 6.421875 -30.625 L 6.421875 -30.796875 C 6.421875 -35.140625 7.164062 -39.234375 8.65625 -43.078125 C 10.15625 -46.921875 12.253906 -50.304688 14.953125 -53.234375 C 17.660156 -56.171875 20.859375 -58.472656 24.546875 -60.140625 C 28.242188 -61.816406 32.296875 -62.65625 36.703125 -62.65625 C 40.566406 -62.65625 43.890625 -62.210938 46.671875 -61.328125 C 49.460938 -60.453125 51.925781 -59.28125 54.0625 -57.8125 C 56.207031 -56.34375 58.222656 -54.703125 60.109375 -52.890625 L 58.78125 -51.5625 C 57.132812 -53.144531 55.300781 -54.65625 53.28125 -56.09375 C 51.257812 -57.53125 48.898438 -58.6875 46.203125 -59.5625 C 43.503906 -60.445312 40.304688 -60.890625 36.609375 -60.890625 C 32.503906 -60.890625 28.734375 -60.097656 25.296875 -58.515625 C 21.867188 -56.929688 18.890625 -54.742188 16.359375 -51.953125 C 13.835938 -49.171875 11.875 -45.972656 10.46875 -42.359375 C 9.0625 -38.753906 8.359375 -34.929688 8.359375 -30.890625 L 8.359375 -30.71875 C 8.359375 -26.664062 9.0625 -22.820312 10.46875 -19.1875 C 11.875 -15.550781 13.851562 -12.351562 16.40625 -9.59375 C 18.957031 -6.832031 21.945312 -4.660156 25.375 -3.078125 C 28.8125 -1.492188 32.554688 -0.703125 36.609375 -0.703125 C 41.648438 -0.703125 46.035156 -1.710938 49.765625 -3.734375 C 53.492188 -5.765625 56.585938 -8.097656 59.046875 -10.734375 L 60.453125 -9.421875 C 57.753906 -6.597656 54.4375 -4.144531 50.5 -2.0625 C 46.570312 0.0195312 41.910156 1.0625 36.515625 1.0625 Z M 36.515625 1.0625 "/></g></g></g><g fill="#ffffff" fill-opacity="1"><g transform="translate(470.856434, 78.31338)"><g><path d="M 37.046875 1.0625 C 32.410156 1.0625 28.203125 0.210938 24.421875 -1.484375 C 20.640625 -3.191406 17.410156 -5.523438 14.734375 -8.484375 C 12.066406 -11.453125 10.015625 -14.84375 8.578125 -18.65625 C 7.140625 -22.46875 6.421875 -26.488281 6.421875 -30.71875 L 6.421875 -30.890625 C 6.421875 -35.109375 7.140625 -39.125 8.578125 -42.9375 C 10.015625 -46.75 12.066406 -50.132812 14.734375 -53.09375 C 17.410156 -56.0625 20.640625 -58.394531 24.421875 -60.09375 C 28.203125 -61.800781 32.410156 -62.65625 37.046875 -62.65625 C 41.742188 -62.65625 45.96875 -61.800781 49.71875 -60.09375 C 53.476562 -58.394531 56.691406 -56.0625 59.359375 -53.09375 C 62.023438 -50.132812 64.078125 -46.75 65.515625 -42.9375 C 66.953125 -39.125 67.671875 -35.109375 67.671875 -30.890625 L 67.671875 -30.71875 C 67.671875 -26.488281 66.953125 -22.46875 65.515625 -18.65625 C 64.078125 -14.84375 62.023438 -11.453125 59.359375 -8.484375 C 56.691406 -5.523438 53.476562 -3.191406 49.71875 -1.484375 C 45.96875 0.210938 41.742188 1.0625 37.046875 1.0625 Z M 37.140625 -0.703125 C 41.472656 -0.703125 45.382812 -1.507812 48.875 -3.125 C 52.375 -4.738281 55.382812 -6.9375 57.90625 -9.71875 C 60.425781 -12.507812 62.359375 -15.707031 63.703125 -19.3125 C 65.054688 -22.925781 65.734375 -26.695312 65.734375 -30.625 L 65.734375 -30.796875 C 65.734375 -34.734375 65.039062 -38.503906 63.65625 -42.109375 C 62.28125 -45.710938 60.316406 -48.921875 57.765625 -51.734375 C 55.210938 -54.554688 52.175781 -56.785156 48.65625 -58.421875 C 45.144531 -60.066406 41.242188 -60.890625 36.953125 -60.890625 C 32.671875 -60.890625 28.769531 -60.082031 25.25 -58.46875 C 21.726562 -56.863281 18.707031 -54.664062 16.1875 -51.875 C 13.664062 -49.09375 11.726562 -45.910156 10.375 -42.328125 C 9.03125 -38.742188 8.359375 -34.957031 8.359375 -30.96875 L 8.359375 -30.796875 C 8.359375 -26.867188 9.046875 -23.097656 10.421875 -19.484375 C 11.804688 -15.878906 13.773438 -12.664062 16.328125 -9.84375 C 18.878906 -7.03125 21.914062 -4.800781 25.4375 -3.15625 C 28.957031 -1.519531 32.859375 -0.703125 37.140625 -0.703125 Z M 37.140625 -0.703125 "/></g></g></g></g></g></g></svg>