<svg xmlns="http://www.w3.org/2000/svg" xmlns:xlink="http://www.w3.org/1999/xlink" width="800" zoomAndPan="magnify" viewBox="0 0 600 307.91998" height="400" preserveAspectRatio="xMidYMid meet" version="1.0"><defs><g></g></defs><g fill="#ffffff" fill-opacity="1"><g transform="translate(83.334988, 188.725947)"><g><path d="M 107.203125 0 L 65.21875 -98.671875 L 45.34375 -98.671875 L 3.359375 0 L 25.328125 0 L 34.28125 -21.96875 L 75.71875 -21.96875 L 84.671875 0 Z M 68.015625 -41 L 41.984375 -41 L 55 -72.78125 Z M 68.015625 -41 "></path></g></g></g><g fill="#ffffff" fill-opacity="1"><g transform="translate(194.459913, 188.725947)"><g><path d="M 95.03125 -26.875 L 95.03125 -27.15625 C 95.03125 -33.6875 93.394531 -38.789062 90.125 -42.46875 C 86.863281 -46.15625 82.382812 -49.070312 76.6875 -51.21875 C 78.46875 -52.15625 80.125 -53.273438 81.65625 -54.578125 C 83.195312 -55.890625 84.550781 -57.40625 85.71875 -59.125 C 86.882812 -60.851562 87.816406 -62.789062 88.515625 -64.9375 C 89.210938 -67.082031 89.5625 -69.554688 89.5625 -72.359375 L 89.5625 -72.640625 C 89.5625 -80.378906 86.691406 -86.535156 80.953125 -91.109375 C 75.222656 -95.679688 67.316406 -97.96875 57.234375 -97.96875 L 11.75 -97.96875 L 11.75 0 L 58.359375 0 C 63.867188 0 68.882812 -0.554688 73.40625 -1.671875 C 77.925781 -2.796875 81.796875 -4.476562 85.015625 -6.71875 C 88.234375 -8.957031 90.707031 -11.753906 92.4375 -15.109375 C 94.164062 -18.472656 95.03125 -22.394531 95.03125 -26.875 Z M 68.15625 -68.71875 C 68.15625 -65.082031 66.753906 -62.445312 63.953125 -60.8125 C 61.160156 -59.175781 57.382812 -58.359375 52.625 -58.359375 L 32.75 -58.359375 L 32.75 -79.078125 L 54.015625 -79.078125 C 58.585938 -79.078125 62.085938 -78.210938 64.515625 -76.484375 C 66.941406 -74.753906 68.15625 -72.257812 68.15625 -69 Z M 73.609375 -29.53125 C 73.609375 -25.894531 72.253906 -23.210938 69.546875 -21.484375 C 66.847656 -19.753906 63.117188 -18.890625 58.359375 -18.890625 L 32.75 -18.890625 L 32.75 -40.453125 L 57.65625 -40.453125 C 63.257812 -40.453125 67.316406 -39.492188 69.828125 -37.578125 C 72.347656 -35.660156 73.609375 -33.070312 73.609375 -29.8125 Z M 73.609375 -29.53125 "></path></g></g></g><g fill="#ffffff" fill-opacity="1"><g transform="translate(296.067842, 188.725947)"><g><path d="M 107.203125 0 L 65.21875 -98.671875 L 45.34375 -98.671875 L 3.359375 0 L 25.328125 0 L 34.28125 -21.96875 L 75.71875 -21.96875 L 84.671875 0 Z M 68.015625 -41 L 41.984375 -41 L 55 -72.78125 Z M 68.015625 -41 "></path></g></g></g><g fill="#ffffff" fill-opacity="1"><g transform="translate(407.192768, 188.725947)"><g><path d="M 102.03125 -48.984375 L 102.03125 -49.265625 C 102.03125 -56.171875 100.769531 -62.582031 98.25 -68.5 C 95.726562 -74.425781 92.15625 -79.582031 87.53125 -83.96875 C 82.914062 -88.351562 77.410156 -91.78125 71.015625 -94.25 C 64.628906 -96.726562 57.613281 -97.96875 49.96875 -97.96875 L 11.75 -97.96875 L 11.75 0 L 49.96875 0 C 57.613281 0 64.628906 -1.257812 71.015625 -3.78125 C 77.410156 -6.300781 82.914062 -9.753906 87.53125 -14.140625 C 92.15625 -18.523438 95.726562 -23.703125 98.25 -29.671875 C 100.769531 -35.640625 102.03125 -42.078125 102.03125 -48.984375 Z M 79.5 -48.703125 C 79.5 -44.316406 78.773438 -40.347656 77.328125 -36.796875 C 75.878906 -33.253906 73.867188 -30.175781 71.296875 -27.5625 C 68.734375 -24.957031 65.632812 -22.953125 62 -21.546875 C 58.363281 -20.148438 54.351562 -19.453125 49.96875 -19.453125 L 33.3125 -19.453125 L 33.3125 -78.515625 L 49.96875 -78.515625 C 54.351562 -78.515625 58.363281 -77.789062 62 -76.34375 C 65.632812 -74.894531 68.734375 -72.863281 71.296875 -70.25 C 73.867188 -67.644531 75.878906 -64.519531 77.328125 -60.875 C 78.773438 -57.238281 79.5 -53.273438 79.5 -48.984375 Z M 79.5 -48.703125 "></path></g></g></g></svg>